<?xml version="1.0" encoding="utf-8"?>
<!-- Uploaded to: SVG Repo, www.svgrepo.com, Generator: SVG Repo Mixer Tools -->
<svg width="800px" height="800px" viewBox="0 0 32 32" xmlns="http://www.w3.org/2000/svg" xmlns:xlink="http://www.w3.org/1999/xlink">
  <defs>
    <clipPath id="clip-stopwatch">
      <rect width="32" height="32"/>
    </clipPath>
  </defs>
  <g id="stopwatch" clip-path="url(#clip-stopwatch)">
    <g id="Group_2187" data-name="Group 2187" transform="translate(-52 -364)">
      <g id="Group_2180" data-name="Group 2180">
        <g id="Group_2179" data-name="Group 2179">
          <g id="Group_2178" data-name="Group 2178">
            <path id="Path_3806" data-name="Path 3806" d="M68,373.256a9.755,9.755,0,1,0,9.754,9.754A9.765,9.765,0,0,0,68,373.256Zm.447,18.593v-.783a.447.447,0,1,0-.894,0v.783a8.858,8.858,0,0,1-8.391-8.392h.783a.447.447,0,0,0,0-.893h-.783a8.858,8.858,0,0,1,8.391-8.392v.783a.447.447,0,0,0,.894,0v-.783a8.858,8.858,0,0,1,8.391,8.392h-.783a.447.447,0,0,0,0,.893h.783A8.858,8.858,0,0,1,68.447,391.849Z" fill="#344952"/>
          </g>
        </g>
      </g>
      <g id="Group_2183" data-name="Group 2183">
        <g id="Group_2182" data-name="Group 2182">
          <g id="Group_2181" data-name="Group 2181">
            <path id="Path_3807" data-name="Path 3807" d="M77.819,374.74l1.766-1.765a.5.5,0,0,0,0-.707l-2.537-2.538a.516.516,0,0,0-.707,0L74.268,371.8a12.749,12.749,0,0,0-3.975-1.426v-1.384H70.6a2.292,2.292,0,0,0,2.29-2.29v-.273a2.292,2.292,0,0,0-2.29-2.29H65.4a2.292,2.292,0,0,0-2.29,2.29v.273a2.292,2.292,0,0,0,2.29,2.29h.311v1.384a12.749,12.749,0,0,0-3.975,1.426l-2.073-2.074a.516.516,0,0,0-.707,0l-2.537,2.538a.5.5,0,0,0,0,.707l1.766,1.765a12.849,12.849,0,1,0,19.638,0Zm-2.667-2.406,1.543-1.543,1.829,1.83L77.146,374a12.952,12.952,0,0,0-1.973-1.644ZM64.106,366.7v-.273a1.292,1.292,0,0,1,1.29-1.29H70.6a1.292,1.292,0,0,1,1.29,1.29v.273a1.292,1.292,0,0,1-1.29,1.29H65.4A1.292,1.292,0,0,1,64.106,366.7Zm2.6,2.29h2.586v1.233a12.7,12.7,0,0,0-2.586,0Zm-9.231,3.627,1.829-1.83,1.543,1.543-.021.021A12.952,12.952,0,0,0,58.854,374ZM68,393.859a10.844,10.844,0,0,1-.27-21.684h.54A10.844,10.844,0,0,1,68,393.859Z" fill="#344952"/>
          </g>
        </g>
      </g>
      <g id="Group_2186" data-name="Group 2186">
        <g id="Group_2185" data-name="Group 2185">
          <g id="Group_2184" data-name="Group 2184">
            <path id="Path_3808" data-name="Path 3808" d="M72.977,382.51H68.5v-4.477a.5.5,0,0,0-.5-.5,5.477,5.477,0,1,0,5.477,5.477A.5.5,0,0,0,72.977,382.51ZM68,387.487a4.477,4.477,0,0,1-.5-8.926v4.449a.5.5,0,0,0,.5.5h4.449A4.483,4.483,0,0,1,68,387.487Z" fill="#344952"/>
          </g>
        </g>
      </g>
    </g>
  </g>
</svg>